<svg id="how-05" xmlns="http://www.w3.org/2000/svg" width="19.766" height="18.668" viewBox="0 0 19.766 18.668">
  <path id="Path_83099" data-name="Path 83099" d="M.549,234.668h2.2a.549.549,0,0,1,.549.549v5.491a.549.549,0,0,1-.549.549H.549A.549.549,0,0,1,0,240.708v-5.491a.549.549,0,0,1,.549-.549Zm0,0" transform="translate(0 -222.589)" fill="#27323c"/>
  <path id="Path_83100" data-name="Path 83100" d="M107.217,149.332h2.2a.549.549,0,0,1,.549.549v9.883a.549.549,0,0,1-.549.549h-2.2a.549.549,0,0,1-.549-.549v-9.883A.549.549,0,0,1,107.217,149.332Zm0,0" transform="translate(-101.177 -141.645)" fill="#27323c"/>
  <path id="Path_83101" data-name="Path 83101" d="M213.881,192h2.2a.549.549,0,0,1,.549.549v7.687a.549.549,0,0,1-.549.549h-2.2a.549.549,0,0,1-.549-.549v-7.687A.549.549,0,0,1,213.881,192Zm0,0" transform="translate(-202.351 -182.117)" fill="#27323c"/>
  <path id="Path_83102" data-name="Path 83102" d="M320.549,128h2.2a.549.549,0,0,1,.549.549V139.53a.549.549,0,0,1-.549.549h-2.2a.549.549,0,0,1-.549-.549V128.549A.549.549,0,0,1,320.549,128Zm0,0" transform="translate(-303.528 -121.411)" fill="#27323c"/>
  <path id="Path_83103" data-name="Path 83103" d="M18.119,0a1.649,1.649,0,0,0-1.647,1.647,1.629,1.629,0,0,0,.094.526L13.817,3.807a1.633,1.633,0,0,0-2.629.352l-2.424-1.2a1.649,1.649,0,0,0,.022-.213,1.647,1.647,0,1,0-3.169.628L2.471,5.72a1.628,1.628,0,0,0-.824-.229A1.664,1.664,0,1,0,3.184,6.559L6.36,4.188a1.612,1.612,0,0,0,1.907-.25L11.024,5.3a1.646,1.646,0,0,0,3.251-.362c0-.042-.009-.081-.012-.122l2.99-1.777a1.631,1.631,0,0,0,.866.252,1.647,1.647,0,1,0,0-3.294Zm0,0" transform="translate(0 0)" fill="#27323c"/>
</svg>
