<svg id="how-02" xmlns="http://www.w3.org/2000/svg" width="18.5" height="22.729" viewBox="0 0 18.5 22.729">
  <path id="Path_83091" data-name="Path 83091" d="M12.386,1.25A7.177,7.177,0,0,0,5.25,8.461a11.071,11.071,0,0,0,1.459,4.692,45.915,45.915,0,0,0,5.075,7.378.792.792,0,0,0,1.2,0,45.915,45.915,0,0,0,5.075-7.378,11.071,11.071,0,0,0,1.459-4.692A7.177,7.177,0,0,0,12.386,1.25Zm0,4.229a2.907,2.907,0,1,0,2.907,2.907A2.908,2.908,0,0,0,12.386,5.479Z" transform="translate(-3.136 -1.25)" fill="#27323c" fill-rule="evenodd"/>
  <path id="Path_83092" data-name="Path 83092" d="M17.557,17.461a6.555,6.555,0,0,1,2.057.951c.317.241.55.477.55.764a.747.747,0,0,1-.232.476,3.314,3.314,0,0,1-.969.691A15.1,15.1,0,0,1,12.5,21.555a15.1,15.1,0,0,1-6.463-1.211,3.314,3.314,0,0,1-.969-.691.747.747,0,0,1-.232-.476c0-.288.233-.523.55-.764a6.555,6.555,0,0,1,2.057-.951.793.793,0,0,0-.457-1.519,7.27,7.27,0,0,0-2.937,1.532,2.373,2.373,0,0,0-.8,1.7,2.655,2.655,0,0,0,1.273,2.1c1.5,1.083,4.5,1.865,7.977,1.865s6.48-.782,7.977-1.865a2.655,2.655,0,0,0,1.273-2.1,2.373,2.373,0,0,0-.8-1.7,7.27,7.27,0,0,0-2.937-1.532.793.793,0,0,0-.457,1.519Z" transform="translate(-3.25 -0.412)" fill="#27323c" fill-rule="evenodd"/>
</svg>
