<svg id="how-04" xmlns="http://www.w3.org/2000/svg" width="20" height="18" viewBox="0 0 20 18">
  <path id="Path_83093" data-name="Path 83093" d="M20.163,15.273a.806.806,0,0,0-.816.818v2.045a1.242,1.242,0,0,1-1.225,1.227H16.082a.806.806,0,0,0-.816.818.752.752,0,0,0,.816.818h2.041a2.855,2.855,0,0,0,2.857-2.864V16.091a.879.879,0,0,0-.816-.818Z" transform="translate(-2 -3)" fill="#27323c"/>
  <path id="Path_83094" data-name="Path 83094" d="M16.082,4.636h2.041a1.242,1.242,0,0,1,1.225,1.227V7.909a.806.806,0,0,0,.816.818.752.752,0,0,0,.816-.818V5.864A2.855,2.855,0,0,0,18.122,3H16.082a.818.818,0,0,0,0,1.636Z" transform="translate(-2 -3)" fill="#27323c"/>
  <path id="Path_83095" data-name="Path 83095" d="M7.918,19.364H5.878a1.242,1.242,0,0,1-1.224-1.227V16.091a.816.816,0,1,0-1.633,0v2.045A2.855,2.855,0,0,0,5.878,21H7.918a.818.818,0,0,0,0-1.636Z" transform="translate(-2 -3)" fill="#27323c"/>
  <path id="Path_83096" data-name="Path 83096" d="M3.837,8.727a.806.806,0,0,0,.816-.818V5.864A1.242,1.242,0,0,1,5.878,4.636H7.918A.818.818,0,0,0,7.918,3H5.878A2.923,2.923,0,0,0,3.02,5.864V7.909a.879.879,0,0,0,.816.818Z" transform="translate(-2 -3)" fill="#27323c"/>
  <path id="Path_83097" data-name="Path 83097" d="M16.082,18.136a2.049,2.049,0,0,0,2.041-2.045V14.25H5.878v1.841a2.049,2.049,0,0,0,2.041,2.045Z" transform="translate(-2 -3)" fill="#27323c"/>
  <path id="Path_83098" data-name="Path 83098" d="M21.184,11.182H18.123V7.909a2.049,2.049,0,0,0-2.041-2.045H7.918A2.049,2.049,0,0,0,5.878,7.909v3.477H2.816A.806.806,0,0,0,2,12.2a.752.752,0,0,0,.816.818H21.184A.806.806,0,0,0,22,12.2a1.01,1.01,0,0,0-.816-1.023Z" transform="translate(-2 -3)" fill="#27323c"/>
</svg>
