<svg xmlns="http://www.w3.org/2000/svg" width="30.34" height="21.333" viewBox="0 0 30.34 21.333">
  <g id="mail" transform="translate(0 -76)">
    <g id="Group_160460" data-name="Group 160460" transform="translate(20.871 77.524)">
      <g id="Group_160459" data-name="Group 160459" transform="translate(0 0)">
        <path id="Path_83140" data-name="Path 83140" d="M361.413,101.721l-9.2,9.142,9.2,9.142a2.636,2.636,0,0,0,.267-1.142v-16A2.636,2.636,0,0,0,361.413,101.721Z" transform="translate(-352.211 -101.721)" fill="#e23d43"/>
      </g>
    </g>
    <g id="Group_160462" data-name="Group 160462" transform="translate(1.524 76)">
      <g id="Group_160461" data-name="Group 160461" transform="translate(0 0)">
        <path id="Path_83141" data-name="Path 83141" d="M51.87,76H26.863a2.636,2.636,0,0,0-1.142.267l11.761,11.7a2.669,2.669,0,0,0,3.771,0l11.761-11.7A2.636,2.636,0,0,0,51.87,76Z" transform="translate(-25.721 -76)" fill="#e23d43"/>
      </g>
    </g>
    <g id="Group_160464" data-name="Group 160464" transform="translate(0 77.524)">
      <g id="Group_160463" data-name="Group 160463" transform="translate(0 0)">
        <path id="Path_83142" data-name="Path 83142" d="M.267,101.721A2.636,2.636,0,0,0,0,102.863v16a2.635,2.635,0,0,0,.267,1.142l9.2-9.142Z" transform="translate(0 -101.721)" fill="#e23d43"/>
      </g>
    </g>
    <g id="Group_160466" data-name="Group 160466" transform="translate(1.524 87.923)">
      <g id="Group_160465" data-name="Group 160465" transform="translate(0 0)">
        <path id="Path_83143" data-name="Path 83143" d="M43.811,277.211l-1.3,1.3a4.449,4.449,0,0,1-6.285,0l-1.3-1.3-9.2,9.142a2.636,2.636,0,0,0,1.142.267H51.87a2.636,2.636,0,0,0,1.142-.267Z" transform="translate(-25.721 -277.211)" fill="#e23d43"/>
      </g>
    </g>
  </g>
</svg>
