<svg xmlns="http://www.w3.org/2000/svg" width="30.4" height="38" viewBox="0 0 30.4 38">
  <path id="pin" d="M21.8,39.232c-.393-.323-.951-.794-1.619-1.393a55.825,55.825,0,0,1-4.9-4.971C11.757,28.8,8,23.117,8,17.2a15.2,15.2,0,0,1,30.4,0c0,5.917-3.757,11.6-7.275,15.669a55.825,55.825,0,0,1-4.9,4.971c-.668.6-1.226,1.07-1.619,1.393A2.481,2.481,0,0,1,23.254,40H23.2a2.392,2.392,0,0,1-1.4-.768Zm1.4-27.1a5.7,5.7,0,1,0,5.7,5.7A5.7,5.7,0,0,0,23.2,12.133Z" transform="translate(-8 -2)" fill="#e23d43" fill-rule="evenodd"/>
</svg>
